<svg width="83" height="25" viewBox="0 0 83 25" fill="none" xmlns="http://www.w3.org/2000/svg">
<path d="M18.6436 5.25708H21.8936V21.5071H18.6436V5.25708Z" fill="#E0431E"/>
<path fill-rule="evenodd" clip-rule="evenodd" d="M45.3936 5.25708H46.1436H49.6436H52.3936L52.7686 5.26647C55.0467 5.26647 56.8936 7.1133 56.8936 9.39147V17.3821C56.8936 19.6603 55.0467 21.5071 52.7686 21.5071H49.6436H46.1436H45.0186C42.7404 21.5071 40.8936 19.6603 40.8936 17.3821V9.39147C40.8936 7.1133 42.7404 5.26647 45.0186 5.26647L45.3936 5.25708ZM46.7686 8.50708H46.1436H45.7686C44.8711 8.50708 44.1436 9.23462 44.1436 10.1321V14.5071V15.5071V15.6321V16.6321C44.1436 17.5295 44.8711 18.2571 45.7686 18.2571H46.1436H46.7686H47.6436H50.1436H52.0186C52.916 18.2571 53.6436 17.5295 53.6436 16.6321V15.6321V15.5071V14.5071V10.1321C53.6436 9.23462 52.916 8.50708 52.0186 8.50708H49.8936H46.7686Z" fill="#E0431E"/>
<path d="M68.6436 5.25708H60.1436V21.5071H63.3936V8.50708H68.2686C69.166 8.50708 69.8936 9.23462 69.8936 10.1321V21.5071H73.1436V10.1321C73.1436 9.23462 73.8711 8.50708 74.7686 8.50708H78.0186C78.916 8.50708 79.6436 9.23462 79.6436 10.1321V21.5071H82.8936V9.75708L82.8842 9.38208C82.8842 7.10391 81.0373 5.25708 78.7592 5.25708H74.0186C73.0759 5.25708 72.2071 5.57328 71.5124 6.10541C70.8198 5.57896 69.9557 5.26647 69.0186 5.26647L68.6436 5.25708Z" fill="#E0431E"/>
<path d="M29.2686 5.26647C26.9904 5.26647 25.1436 7.1133 25.1436 9.39147V17.3821C25.1436 19.6603 26.9904 21.5071 29.2686 21.5071H37.8936V18.2571H30.0186C29.1211 18.2571 28.3936 17.5295 28.3936 16.6321V10.1321C28.3936 9.23462 29.1211 8.50708 30.0186 8.50708H37.8936V5.26647L29.6436 5.25708L29.2686 5.26647Z" fill="#E0431E"/>
<path fill-rule="evenodd" clip-rule="evenodd" d="M3.89355 24.7571V21.5071H11.2686C13.5467 21.5071 15.3936 19.6603 15.3936 17.3821V9.39147C15.3936 7.1133 13.5467 5.26647 11.2686 5.26647L10.8936 5.25708H0.643555V24.7571H3.89355ZM3.89355 18.2571V8.50708H10.5186C11.416 8.50708 12.1436 9.23462 12.1436 10.1321V16.6321C12.1436 17.5295 11.416 18.2571 10.5186 18.2571H3.89355Z" fill="#E0431E"/>
<path d="M22.0186 2.25708C22.0186 3.22358 21.2351 4.00708 20.2686 4.00708C19.3021 4.00708 18.5186 3.22358 18.5186 2.25708C18.5186 1.29058 19.3021 0.50708 20.2686 0.50708C21.2351 0.50708 22.0186 1.29058 22.0186 2.25708Z" fill="#E0431E"/>
</svg>
